<svg width="152" height="32" viewBox="0 0 152 32" fill="none" xmlns="http://www.w3.org/2000/svg">
<g clip-path="url(#clip0_0_275)">
<path d="M40.0965 4.63674C38.828 3.91121 37.3853 3.54925 35.9258 3.59034C34.7878 3.574 33.6602 3.80988 32.6235 4.28115C31.5867 4.75242 30.6664 5.44748 29.9281 6.31674C28.5825 7.82074 27.7981 9.59675 27.272 10.6591C27.1522 10.9145 27.0137 11.1605 26.8575 11.3951C26.7893 11.4972 26.7001 11.5834 26.596 11.6479C26.5272 11.6879 26.4491 11.7089 26.3696 11.7087C26.251 11.7081 26.1371 11.6624 26.0508 11.5807C25.9836 11.5161 25.9267 11.4417 25.8818 11.3599C25.7785 11.1695 25.692 10.9704 25.6235 10.7647C25.4481 10.2911 25.244 9.65754 24.9571 8.95674C24.3863 7.55194 23.4871 5.89754 21.8897 4.79674C20.6161 3.95889 19.1167 3.53436 17.5946 3.58074C14.76 3.58074 12.8628 4.68794 11.5363 6.07994C10.3523 7.32555 9.40652 8.77906 8.7463 10.3679C8.22656 11.7727 7.82161 13.5679 6.9001 13.4271C6.66415 13.3951 5.04753 12.8895 6.38993 10.5471C6.84909 9.74714 8.3254 7.86874 8.59324 6.47674C9.14806 3.59674 6.9001 1.72794 4.44808 1.72794C3.26977 1.7271 2.13934 2.19582 1.30526 3.03109C0.471174 3.86636 0.00169024 4.99982 0 6.18234C0 6.32314 0 6.46074 0.0223201 6.59834C0.00820734 6.65161 0.00071045 6.70643 0 6.76154L0 30.3039C0 30.4058 0.0403127 30.5035 0.11207 30.5755C0.183827 30.6475 0.281151 30.6879 0.382631 30.6879H7.5984C7.69822 30.6854 7.7931 30.6439 7.8628 30.5721C7.9325 30.5004 7.9715 30.4041 7.97147 30.3039V22.4607C7.97147 19.9807 8.21699 17.8495 8.7463 16.1343C9.2756 14.4191 10.1046 13.1199 11.2653 12.3295C12.0794 11.796 13.0319 11.5144 14.0043 11.5199C14.0521 11.5199 15.5986 11.6159 16.1566 11.8623C16.7188 12.1086 17.1856 12.5321 17.4862 13.0687C18.1239 14.1855 18.3216 15.8719 18.3248 18.4319V30.3039C18.3248 30.4058 18.3651 30.5035 18.4369 30.5755C18.5086 30.6475 18.606 30.6879 18.7074 30.6879H25.9232C26.0247 30.6879 26.122 30.6475 26.1938 30.5755C26.2655 30.5035 26.3058 30.4058 26.3058 30.3039V22.4607C26.3058 19.9871 26.4557 17.8559 26.8989 16.1343C27.3421 14.4127 28.0946 13.0879 29.3127 12.2943C30.2245 11.7483 31.2745 11.4793 32.3355 11.5199C33.0415 11.4915 33.7463 11.6002 34.4112 11.8399C34.987 12.0715 35.4702 12.4878 35.7855 13.0239C36.4487 14.1343 36.6464 15.8239 36.6496 18.4191V30.3039C36.6505 30.4055 36.691 30.5027 36.7626 30.5745C36.8342 30.6464 36.931 30.6871 37.0323 30.6879H44.248C44.3495 30.6879 44.4468 30.6475 44.5186 30.5755C44.5904 30.5035 44.6307 30.4058 44.6307 30.3039V16.8415C44.6307 14.1215 44.3373 11.5583 43.6199 9.43674C42.9025 7.31514 41.7705 5.63834 40.0965 4.63674Z" fill="#9A28CD"/>
<path d="M72.8011 6.42578C70.1227 4.01938 66.392 2.81618 62.215 2.81618C58.0379 2.81618 54.269 4.01938 51.5842 6.42578C48.8994 8.83218 47.2446 12.4546 47.2414 17.3794C47.2382 22.3042 48.8994 25.965 51.5842 28.381C54.269 30.797 58.0092 32.0002 62.215 32.0002C66.4207 32.0002 70.1227 30.797 72.8011 28.381C75.4795 25.965 77.1344 22.333 77.1376 17.3794C77.1408 12.4258 75.4795 8.83538 72.8011 6.42578ZM67.2529 22.8898C66.0222 24.0994 64.2748 24.6562 62.215 24.653C60.1551 24.6498 58.3695 24.0994 57.1324 22.8898C55.8952 21.6802 55.2192 19.8402 55.2192 17.3794C55.2192 14.9186 55.892 13.1234 57.1324 11.9202C58.3727 10.717 60.1296 10.1602 62.215 10.1602C64.3003 10.1602 66.0222 10.717 67.2529 11.9202C68.4837 13.1234 69.1661 14.9442 69.1661 17.3794C69.1661 19.8146 68.4837 21.677 67.2529 22.8898Z" fill="#9A28CD"/>
<path d="M93.7049 10.3445C95.1299 10.3041 96.5355 10.6835 97.7481 11.4357C98.764 12.0864 99.5036 13.092 99.8238 14.2581C99.8487 14.3628 99.9077 14.4562 99.9914 14.5234C100.075 14.5907 100.179 14.6279 100.286 14.6293H107.384C107.512 14.626 107.634 14.5727 107.724 14.4807C107.814 14.3887 107.865 14.2653 107.865 14.1365V14.0789C107.702 12.4792 107.193 10.9345 106.374 9.55275C105.554 8.17097 104.444 6.98541 103.121 6.07887C100.57 4.27727 97.2092 3.34607 93.7049 3.34927C89.4482 3.34927 85.8291 4.60367 83.2751 6.95887C80.721 9.31407 79.216 12.7701 79.2128 17.2565C79.2096 21.7429 80.7242 25.2565 83.2751 27.6053C85.8259 29.9541 89.4482 31.2213 93.7049 31.2213C97.2124 31.2213 100.56 30.2933 103.121 28.4917C104.443 27.5845 105.553 26.3987 106.372 25.017C107.191 23.6353 107.699 22.091 107.862 20.4917V20.4341C107.862 20.3053 107.812 20.1818 107.722 20.0901C107.632 19.9985 107.509 19.9462 107.381 19.9445H100.286C100.179 19.9456 100.076 19.9824 99.9923 20.0491C99.9085 20.1157 99.8493 20.2083 99.8238 20.3125C99.5036 21.4786 98.764 22.4841 97.7481 23.1349C96.5364 23.8896 95.1304 24.2702 93.7049 24.2293C91.6132 24.2293 89.9647 23.5893 88.8551 22.3829C87.7455 21.1765 87.1938 19.4197 87.1938 17.2629C87.1938 15.1061 87.7423 13.3877 88.8551 12.1845C89.9679 10.9813 91.6132 10.3413 93.7049 10.3445Z" fill="#9A28CD"/>
<path d="M141.51 23.7045H138.806C138.662 23.7045 138.519 23.6759 138.386 23.6204C138.253 23.5648 138.131 23.4835 138.03 23.3809C137.928 23.2784 137.847 23.1566 137.792 23.0227C137.737 22.8888 137.709 22.7453 137.709 22.6005V15.8197C137.709 11.4165 136.115 8.37646 133.603 6.40206C131.09 4.42766 127.656 3.52206 123.97 3.52206C120.408 3.52206 117.242 4.43086 114.921 6.10126C113.749 6.91564 112.776 7.98436 112.073 9.22807C111.369 10.4718 110.954 11.8585 110.858 13.2853V13.3333C110.859 13.4948 110.924 13.6494 111.038 13.7634C111.152 13.8773 111.306 13.9413 111.467 13.9413H117.87C118.008 13.9392 118.14 13.8872 118.243 13.7949C118.345 13.7025 118.411 13.5761 118.428 13.4389C118.513 12.9124 118.712 12.4112 119.013 11.9714C119.313 11.5315 119.707 11.1639 120.166 10.8949C121.122 10.3157 122.398 10.0181 123.973 10.0181C125.548 10.0181 126.827 10.2645 127.755 10.7413C128.182 10.9413 128.56 11.2325 128.864 11.5945C129.167 11.9565 129.388 12.3806 129.512 12.8373C129.536 12.9226 129.548 13.011 129.547 13.0997C129.542 13.3642 129.443 13.6182 129.267 13.8155C129.092 14.0129 128.851 14.1404 128.59 14.1749L120.899 15.2437C116.904 15.8037 114.238 16.7669 112.609 18.1237C110.979 19.4805 110.307 21.2437 110.303 23.5381C110.278 25.3124 110.886 27.0374 112.016 28.4021C113.377 29.9797 115.756 31.2469 119.914 31.2501C123.989 31.2501 126.527 30.0533 128.204 28.3701C129.881 26.6869 130.707 24.4373 131.262 22.3285C131.326 22.0946 131.465 21.8884 131.658 21.7415C131.85 21.5947 132.085 21.5153 132.327 21.5157C132.465 21.5151 132.602 21.5433 132.729 21.5983C132.855 21.6534 132.97 21.7342 133.064 21.8357C133.209 21.9907 133.304 22.1863 133.335 22.3966C133.367 22.6069 133.335 22.8219 133.242 23.0133C133.003 23.597 132.802 24.1956 132.64 24.8053C132.425 25.5183 132.265 26.2468 132.161 26.9845C132.142 27.1861 132.129 27.3781 132.129 27.5637C132.129 28.7189 132.518 29.4837 133.166 29.9893C133.813 30.4949 134.776 30.7445 135.937 30.7445H141.51C141.67 30.7428 141.823 30.6781 141.936 30.5643C142.048 30.4506 142.112 30.2969 142.113 30.1365V24.3189C142.114 24.2387 142.099 24.1593 142.069 24.085C142.039 24.0107 141.995 23.943 141.939 23.8859C141.883 23.8288 141.816 23.7834 141.743 23.7523C141.669 23.7211 141.59 23.7049 141.51 23.7045ZM129.457 20.0821C129.059 21.6437 127.984 22.8789 126.431 23.7045C124.879 24.5301 122.841 24.9845 120.462 24.9845C119.827 24.9948 119.194 24.8985 118.591 24.6997C118.015 24.5233 117.518 24.1524 117.184 23.6501C116.965 23.2731 116.854 22.8419 116.866 22.4053C116.842 21.9793 116.947 21.5561 117.167 21.1911C117.387 20.8262 117.712 20.5366 118.1 20.3605C118.89 19.9509 120.013 19.7397 121.476 19.5221L128.121 18.5909C128.179 18.5877 128.236 18.5877 128.294 18.5909C128.613 18.5909 128.92 18.7182 129.147 18.9449C129.373 19.1717 129.501 19.4794 129.502 19.8005C129.498 19.8957 129.483 19.9902 129.457 20.0821Z" fill="#9A28CD"/>
<path d="M150.529 1.91954C150.069 1.299 149.466 0.800007 148.771 0.465532C148.076 0.131058 147.311 -0.0288639 146.541 -0.000458053C145.161 -0.000458053 144.078 0.441142 143.291 1.32434C142.512 2.19554 142.091 3.33135 142.115 4.50194C142.115 5.76487 142.495 6.75794 143.256 7.48114C143.904 8.15318 144.79 8.54182 145.721 8.56274C146.069 8.5498 146.416 8.50156 146.754 8.41874C147.03 8.33222 147.314 8.27537 147.602 8.24914C148.24 8.24914 148.559 8.65234 148.559 9.46514C148.559 10.8251 147.921 11.9995 146.646 12.9851C145.64 13.7952 144.422 14.2964 143.138 14.4283C142.973 14.4434 142.82 14.5197 142.708 14.6421C142.596 14.7646 142.533 14.9245 142.533 15.0907V16.6683C142.533 16.761 142.552 16.8526 142.589 16.9373C142.626 17.0221 142.681 17.0982 142.749 17.1607C142.817 17.2233 142.897 17.271 142.984 17.3008C143.072 17.3306 143.164 17.3419 143.256 17.3339C145.504 17.1384 147.614 16.167 149.229 14.5851C151.078 12.8102 152.004 10.3569 152.006 7.22514C152.004 4.98941 151.512 3.22088 150.529 1.91954Z" fill="#9A28CD"/>
</g>
<defs>
<clipPath id="clip0_0_275">
<rect width="152" height="32" fill="white"/>
</clipPath>
</defs>
</svg>
