<svg width="23" height="23" viewBox="0 0 23 23" fill="none" xmlns="http://www.w3.org/2000/svg">
<path d="M17.5892 8.21994C17.7802 8.02783 17.9317 7.79974 18.0351 7.54872C18.1385 7.29769 18.1917 7.02864 18.1917 6.75691C18.1918 6.48519 18.1386 6.21613 18.0353 5.96507C17.932 5.71402 17.7805 5.4859 17.5896 5.29374C17.3987 5.10157 17.172 4.94913 16.9225 4.84511C16.673 4.7411 16.4055 4.68754 16.1355 4.6875C15.8654 4.68746 15.598 4.74095 15.3485 4.8449C15.099 4.94885 14.8722 5.10124 14.6812 5.29335L14.0679 5.91045C12.8935 5.33935 11.5716 5.14993 10.2855 5.36844C8.99929 5.58695 7.81251 6.20256 6.8896 7.12998L3.8789 10.1607L1.04991 11.1249C0.800959 11.2097 0.577609 11.357 0.400987 11.5529C0.224365 11.7487 0.100297 11.9866 0.0405126 12.2441C-0.0192719 12.5017 -0.012795 12.7703 0.0593237 13.0246C0.131442 13.2789 0.266823 13.5105 0.452671 13.6974L2.82014 16.0802C2.45904 16.6468 2.30132 17.3205 2.37312 17.9896C2.44492 18.6588 2.74193 19.2831 3.21489 19.759C3.68784 20.235 4.30831 20.534 4.97336 20.6063C5.6384 20.6787 6.30804 20.5201 6.8712 20.1569L9.23868 22.5397C9.38117 22.6841 9.55064 22.7987 9.73736 22.877C9.92407 22.9552 10.1243 22.9955 10.3266 22.9956C10.4461 22.9954 10.5652 22.9814 10.6815 22.9539C10.9381 22.895 11.1754 22.7705 11.3703 22.5926C11.5653 22.4147 11.7115 22.1892 11.7947 21.938L12.7523 19.0909L15.763 16.0609C16.6851 15.1321 17.2972 13.9376 17.5142 12.643C17.7313 11.3485 17.5426 10.0181 16.9743 8.83626L17.5892 8.21994ZM15.5667 6.18506C15.7193 6.04258 15.9208 5.96516 16.129 5.9691C16.3371 5.97303 16.5356 6.05801 16.6827 6.20615C16.8299 6.35429 16.9142 6.55407 16.9179 6.76347C16.9217 6.97287 16.8447 7.1756 16.7029 7.329L16.2935 7.74091C15.9641 7.31306 15.5824 6.92871 15.1573 6.59697L15.5667 6.18506ZM5.28574 19.3663C5.00816 19.3661 4.73495 19.2966 4.49055 19.1642C4.24615 19.0318 4.03817 18.8405 3.88522 18.6075C3.73226 18.3744 3.6391 18.1068 3.61405 17.8287C3.589 17.5506 3.63284 17.2705 3.74167 17.0136L5.94583 19.2313C5.73715 19.3208 5.51259 19.3667 5.28574 19.3663ZM14.876 15.1739L12.2049 17.8621L8.71197 14.3469C8.59351 14.234 8.4359 14.172 8.27269 14.1742C8.10948 14.1764 7.95356 14.2426 7.83814 14.3587C7.72272 14.4748 7.65693 14.6317 7.65475 14.7959C7.65257 14.9601 7.71418 15.1187 7.82647 15.2379L11.4865 18.9219L10.6064 21.5377C10.5905 21.5852 10.5628 21.6278 10.5259 21.6615C10.489 21.6952 10.4442 21.7189 10.3957 21.7303C10.3472 21.7418 10.2966 21.7406 10.2487 21.7268C10.2007 21.7131 10.1571 21.6873 10.1219 21.6518L1.33588 12.8088C1.30046 12.7734 1.27461 12.7295 1.2608 12.6813C1.24699 12.633 1.24567 12.582 1.25696 12.5331C1.26825 12.4842 1.29178 12.439 1.32531 12.4018C1.35885 12.3646 1.40127 12.3366 1.44857 12.3205L4.04757 11.4342L5.76797 13.1652C5.82611 13.2238 5.89515 13.2702 5.97114 13.3019C6.04712 13.3336 6.12857 13.35 6.21084 13.35C6.2931 13.35 6.37456 13.3338 6.45057 13.3021C6.52659 13.2705 6.59566 13.2241 6.65385 13.1656C6.71205 13.1071 6.75822 13.0376 6.78973 12.9612C6.82124 12.8847 6.83748 12.8028 6.83752 12.72C6.83755 12.6372 6.82139 12.5553 6.78994 12.4788C6.75849 12.4023 6.71238 12.3328 6.65424 12.2743L5.10173 10.7115L7.77357 8.02246C8.5548 7.23722 9.57128 6.73265 10.666 6.58668C11.7607 6.44071 12.8727 6.66146 13.8302 7.21483C13.8488 7.22716 13.868 7.2385 13.8877 7.24878C14.6087 7.68304 15.2116 8.29018 15.6426 9.01599C15.6523 9.03451 15.6628 9.0525 15.6741 9.06998C16.2254 10.0344 16.4458 11.1547 16.3009 12.2577C16.1561 13.3607 15.6543 14.385 14.8729 15.1723L14.876 15.1739Z" fill="#FFE42C"/>
<path d="M6.39983 2.65625C5.90172 2.65686 5.42418 2.85628 5.07203 3.21073C4.71989 3.56518 4.52189 4.04572 4.52148 4.54689C4.52148 4.71403 4.58747 4.87432 4.70494 4.99251C4.82241 5.11069 4.98172 5.1771 5.14784 5.1771C5.31396 5.1771 5.4733 5.11069 5.59077 4.99251C5.70823 4.87432 5.77422 4.71403 5.77422 4.54689C5.77442 4.37994 5.84037 4.21987 5.95763 4.10175C6.07488 3.98363 6.2339 3.91708 6.39983 3.91667C6.56595 3.91667 6.72526 3.85027 6.84273 3.73208C6.9602 3.61389 7.02618 3.4536 7.02618 3.28646C7.02618 3.11932 6.9602 2.95902 6.84273 2.84083C6.72526 2.72264 6.56595 2.65625 6.39983 2.65625Z" fill="#FFE42C"/>
<path d="M6.39794 0C5.20013 0.00163349 4.05188 0.48121 3.20504 1.33353C2.35821 2.18585 1.88195 3.34132 1.88074 4.54647C1.88074 4.71361 1.94673 4.87391 2.06419 4.9921C2.18166 5.11028 2.34099 5.17668 2.50712 5.17668C2.67324 5.17668 2.83255 5.11028 2.95002 4.9921C3.06748 4.87391 3.13347 4.71361 3.13347 4.54647C3.13428 3.67548 3.47844 2.84036 4.09043 2.22433C4.70241 1.6083 5.53225 1.26165 6.39794 1.26042C6.56406 1.26042 6.72339 1.19403 6.84086 1.07584C6.95833 0.95765 7.02432 0.797354 7.02432 0.630212C7.02432 0.46307 6.95833 0.302774 6.84086 0.184586C6.72339 0.0663987 6.56406 0 6.39794 0Z" fill="#FFE42C"/>
<path d="M17.8477 17.9649C17.8477 18.132 17.9136 18.2923 18.0311 18.4105C18.1486 18.5287 18.3079 18.5951 18.474 18.5951C18.9721 18.5945 19.4497 18.395 19.8018 18.0406C20.154 17.6861 20.3519 17.2056 20.3524 16.7044C20.3524 16.5373 20.2864 16.377 20.1689 16.2588C20.0514 16.1406 19.8921 16.0742 19.726 16.0742C19.5599 16.0742 19.4006 16.1406 19.2831 16.2588C19.1656 16.377 19.0996 16.5373 19.0996 16.7044C19.0994 16.8714 19.0335 17.0314 18.9162 17.1496C18.799 17.2677 18.64 17.3342 18.474 17.3346C18.3079 17.3346 18.1486 17.401 18.0311 17.5192C17.9136 17.6374 17.8477 17.7977 17.8477 17.9649Z" fill="#FFE42C"/>
<path d="M22.3727 16.0742C22.2904 16.0742 22.209 16.0905 22.133 16.1222C22.057 16.1539 21.9879 16.2003 21.9298 16.2588C21.8716 16.3173 21.8255 16.3868 21.794 16.4633C21.7625 16.5397 21.7463 16.6217 21.7463 16.7044C21.7455 17.5754 21.4013 18.4105 20.7894 19.0266C20.1774 19.6426 19.3475 19.9892 18.4818 19.9905C18.3157 19.9905 18.1564 20.0569 18.0389 20.1751C17.9215 20.2933 17.8555 20.4536 17.8555 20.6207C17.8555 20.7878 17.9215 20.9481 18.0389 21.0663C18.1564 21.1845 18.3157 21.2509 18.4818 21.2509C19.6797 21.2493 20.8279 20.7697 21.6747 19.9174C22.5216 19.0651 22.9978 17.9096 22.999 16.7044C22.999 16.6217 22.9828 16.5397 22.9514 16.4633C22.9199 16.3868 22.8738 16.3173 22.8156 16.2588C22.7574 16.2003 22.6884 16.1539 22.6124 16.1222C22.5364 16.0905 22.4549 16.0742 22.3727 16.0742Z" fill="#FFE42C"/>
</svg>
