<svg width="69" height="78" viewBox="0 0 69 78" fill="none" xmlns="http://www.w3.org/2000/svg">
<path d="M48.6315 38.4113C36.3046 34.0724 28.7096 41.7992 35.1172 47.491M62.6881 59.0562C60.3224 61.9195 55.8054 63.9409 47.779 63.4607C40.1749 63.0058 36.2734 60.4539 34.5805 57.3918M62.6881 59.0562C63.8243 64.2509 62.1939 74.4204 46.981 73.0698C43.2315 72.7369 40.4352 71.9115 38.3849 70.7838M62.6881 59.0562C65.3575 55.8254 65.0147 50.9426 64.1422 47.9203M34.5805 57.3918C32.7419 54.0662 33.6531 49.9948 35.1172 47.491M34.5805 57.3918C32.822 61.0614 32.1168 67.3359 38.3849 70.7838M14.1943 32.3067C15.438 32.3067 16.572 32.1638 17.6102 31.898M38.7774 70.6637C38.6468 70.7046 38.516 70.7446 38.3849 70.7838M17.6102 31.898C31.5924 28.319 27.9777 1.37758 41.4572 2.53623C55.3012 3.72623 43.1488 29.9268 43.1488 29.9268C51.1343 28.7566 66.046 30.5574 66.4861 40.5533C66.624 43.6832 65.7257 46.1049 64.1422 47.9203M17.6102 31.898C17.6102 31.898 16.1894 27.1914 12.2558 26.8862C-2.0413 25.7769 0.992537 72.5946 10.9861 75.1425C18.3831 77.0283 20.4761 70.8387 20.4761 70.8387M20.4761 70.8387C18.2723 70.025 16.431 68.8621 14.9398 67.3771M20.4761 70.8387C25.2362 72.5963 32.0541 72.6761 38.3849 70.7838M64.1422 47.9203C57.775 55.2204 41.8962 53.5128 35.1172 47.491" stroke="#9A28CD" stroke-width="5"/>
</svg>
