<svg width="11" height="18" viewBox="0 0 11 18" fill="none" xmlns="http://www.w3.org/2000/svg">
<path d="M8.77851 2.01568C8.30112 1.36819 7.67315 0.846793 6.94889 0.496646C6.22464 0.146498 5.42596 -0.021864 4.62199 0.00614994C3.9902 -0.0276509 3.35876 0.0781835 2.77251 0.316118C2.18626 0.554053 1.65956 0.918233 1.23003 1.38278C0.418675 2.28703 -0.0188055 3.46576 0.00606082 4.68039C-0.0252112 5.25133 0.064786 5.82242 0.270172 6.35605C0.475558 6.88968 0.791695 7.37374 1.19768 7.77639C1.8695 8.47402 2.78976 8.87799 3.75802 8.90031C4.12219 8.88638 4.48403 8.83572 4.83802 8.74912C5.12635 8.65994 5.42312 8.60083 5.72361 8.57272C6.37545 8.57272 6.70282 8.99392 6.7057 9.83632C6.6917 10.5597 6.50372 11.269 6.1577 11.9044C5.81169 12.5398 5.31775 13.0825 4.7177 13.4867C3.66667 14.3276 2.39557 14.8479 1.05653 14.985C0.88457 14.9997 0.724375 15.0782 0.607584 15.2053C0.490794 15.3324 0.425929 15.4986 0.425826 15.6712V17.3099C0.425741 17.406 0.44565 17.5011 0.484362 17.5891C0.523073 17.6771 0.579724 17.7561 0.650651 17.821C0.721577 17.8859 0.805223 17.9353 0.896305 17.9661C0.987387 17.9968 1.08391 18.0083 1.17966 17.9997C3.77579 17.8061 6.19067 16.5959 7.89969 14.6321C9.60872 12.6683 10.4738 10.1094 10.3071 7.51144C10.4184 5.56099 9.88087 3.62857 8.77851 2.01568Z" fill="#FFE42C"/>
</svg>
